# xmcd
#
# Track frame offsets: 
#        150
#        21615
#        37471
#        50062
#        67764
#        83151
#        98303
#        112566
#        124961
#        145369
#        152067
#        158846
#        168218
#        182242
#        196627
#        209340
#
# Disc length: 3030 seconds
#
# Revision: 0
# Processed by: cddbd v1.5.2PL0 Copyright (c) Steve Scherf et al.
# Submitted via: ExactAudioCopy v0.95b3
#
DISCID=d50bd410
DTITLE=Qwel and Meaty Ogre - Freezer Burner
DYEAR=2006
DGENRE=Rap and Hip Hop
TTITLE0=01 - Wintro - Who's the Boogieman?
TTITLE1=02 - ID Glue
TTITLE2=03 - I Forgive 'Em
TTITLE3=04 - Read Writer
TTITLE4=05 - Saved
TTITLE5=06 - Fallen Rome
TTITLE6=07 - The Cyclops
TTITLE7=08 - Winterlude
TTITLE8=09 - Machinegun Monkey
TTITLE9=10 - Cabin Fever
TTITLE10=11 - Don Quixote
TTITLE11=12 - High Tithe
TTITLE12=13 - The Fourth Reich of the Rich
TTITLE13=14 - Elijah the Prophet
TTITLE14=15 - Practice for Hope
TTITLE15=16 - Aceticism
EXTD=
EXTT0=
EXTT1=
EXTT2=
EXTT3=
EXTT4=
EXTT5=
EXTT6=
EXTT7=
EXTT8=
EXTT9=
EXTT10=
EXTT11=
EXTT12=
EXTT13=
EXTT14=
EXTT15=
PLAYORDER=
